%TF.GenerationSoftware,KiCad,Pcbnew,9.0.0*%
%TF.CreationDate,2025-03-14T15:21:30-04:00*%
%TF.ProjectId,LVDelay,4c564465-6c61-4792-9e6b-696361645f70,rev?*%
%TF.SameCoordinates,Original*%
%TF.FileFunction,Copper,L2,Inr*%
%TF.FilePolarity,Positive*%
%FSLAX46Y46*%
G04 Gerber Fmt 4.6, Leading zero omitted, Abs format (unit mm)*
G04 Created by KiCad (PCBNEW 9.0.0) date 2025-03-14 15:21:30*
%MOMM*%
%LPD*%
G01*
G04 APERTURE LIST*
%TA.AperFunction,ComponentPad*%
%ADD10C,1.700000*%
%TD*%
%TA.AperFunction,ComponentPad*%
%ADD11O,1.700000X1.700000*%
%TD*%
%TA.AperFunction,ComponentPad*%
%ADD12R,1.700000X1.700000*%
%TD*%
%TA.AperFunction,ViaPad*%
%ADD13C,0.600000*%
%TD*%
G04 APERTURE END LIST*
D10*
%TO.N,/Ch0+*%
%TO.C,J2*%
X105314830Y-73590655D03*
D11*
%TO.N,/Ch0-*%
X105314830Y-71050655D03*
%TO.N,/Ch1+*%
X107854830Y-73590655D03*
%TO.N,/Ch1-*%
X107854830Y-71050655D03*
%TO.N,/Ch2+*%
X110394830Y-73590655D03*
%TO.N,/Ch2-*%
X110394830Y-71050655D03*
%TO.N,/Ch3+*%
X112934830Y-73590655D03*
%TO.N,/Ch3-*%
X112934830Y-71050655D03*
%TO.N,/Ch4+*%
X115474830Y-73590655D03*
%TO.N,/Ch4-*%
X115474830Y-71050655D03*
%TO.N,/Ch5+*%
X118014830Y-73590655D03*
%TO.N,/Ch5-*%
X118014830Y-71050655D03*
%TO.N,/Ch6+*%
X120554830Y-73590655D03*
%TO.N,/Ch6-*%
X120554830Y-71050655D03*
%TO.N,/Ch7+*%
X123094830Y-73590655D03*
%TO.N,/Ch7-*%
X123094830Y-71050655D03*
%TO.N,/Ch8+*%
X125634830Y-73590655D03*
%TO.N,/Ch8-*%
X125634830Y-71050655D03*
%TO.N,/Ch9+*%
X128174830Y-73590655D03*
%TO.N,/Ch9-*%
X128174830Y-71050655D03*
%TO.N,/Ch10+*%
X130714830Y-73590655D03*
%TO.N,/Ch10-*%
X130714830Y-71050655D03*
%TO.N,/Ch11+*%
X133254830Y-73590655D03*
%TO.N,/Ch11-*%
X133254830Y-71050655D03*
%TO.N,/Ch12+*%
X135794830Y-73590655D03*
%TO.N,/Ch12-*%
X135794830Y-71050655D03*
%TO.N,/Ch13+*%
X138334830Y-73590655D03*
%TO.N,/Ch13-*%
X138334830Y-71050655D03*
%TO.N,/Ch14+*%
X140874830Y-73590655D03*
%TO.N,/Ch14-*%
X140874830Y-71050655D03*
%TO.N,/Ch15+*%
X143414830Y-73590655D03*
%TO.N,/Ch15-*%
X143414830Y-71050655D03*
D12*
%TO.N,GND*%
X145954830Y-73590655D03*
X145954830Y-71050655D03*
%TD*%
D10*
%TO.N,/Ch0+*%
%TO.C,J1*%
X96937830Y-71050655D03*
D11*
%TO.N,/Ch0-*%
X96937830Y-73590655D03*
%TO.N,/Ch1+*%
X94397830Y-71050655D03*
%TO.N,/Ch1-*%
X94397830Y-73590655D03*
%TO.N,/Ch2+*%
X91857830Y-71050655D03*
%TO.N,/Ch2-*%
X91857830Y-73590655D03*
%TO.N,/Ch3+*%
X89317830Y-71050655D03*
%TO.N,/Ch3-*%
X89317830Y-73590655D03*
%TO.N,/Ch4+*%
X86777830Y-71050655D03*
%TO.N,/Ch4-*%
X86777830Y-73590655D03*
%TO.N,/Ch5+*%
X84237830Y-71050655D03*
%TO.N,/Ch5-*%
X84237830Y-73590655D03*
%TO.N,/Ch6+*%
X81697830Y-71050655D03*
%TO.N,/Ch6-*%
X81697830Y-73590655D03*
%TO.N,/Ch7+*%
X79157830Y-71050655D03*
%TO.N,/Ch7-*%
X79157830Y-73590655D03*
%TO.N,/Ch8+*%
X76617830Y-71050655D03*
%TO.N,/Ch8-*%
X76617830Y-73590655D03*
%TO.N,/Ch9+*%
X74077830Y-71050655D03*
%TO.N,/Ch9-*%
X74077830Y-73590655D03*
%TO.N,/Ch10+*%
X71537830Y-71050655D03*
%TO.N,/Ch10-*%
X71537830Y-73590655D03*
%TO.N,/Ch11+*%
X68997830Y-71050655D03*
%TO.N,/Ch11-*%
X68997830Y-73590655D03*
%TO.N,/Ch12+*%
X66457830Y-71050655D03*
%TO.N,/Ch12-*%
X66457830Y-73590655D03*
%TO.N,/Ch13+*%
X63917830Y-71050655D03*
%TO.N,/Ch13-*%
X63917830Y-73590655D03*
%TO.N,/Ch14+*%
X61377830Y-71050655D03*
%TO.N,/Ch14-*%
X61377830Y-73590655D03*
%TO.N,/Ch15+*%
X58837830Y-71050655D03*
%TO.N,/Ch15-*%
X58837830Y-73590655D03*
D12*
%TO.N,GND*%
X56297830Y-71050655D03*
X56297830Y-73590655D03*
%TD*%
D13*
%TO.N,GND*%
X101346000Y-69850000D03*
X101092000Y-74168000D03*
X53340000Y-90170000D03*
X53848000Y-53340000D03*
X147320000Y-90424000D03*
X146812000Y-53594000D03*
%TD*%
%TA.AperFunction,Conductor*%
%TO.N,GND*%
G36*
X56547830Y-73157643D02*
G01*
X56490823Y-73124730D01*
X56363656Y-73090655D01*
X56232004Y-73090655D01*
X56104837Y-73124730D01*
X56047830Y-73157643D01*
X56047830Y-71483667D01*
X56104837Y-71516580D01*
X56232004Y-71550655D01*
X56363656Y-71550655D01*
X56490823Y-71516580D01*
X56547830Y-71483667D01*
X56547830Y-73157643D01*
G37*
%TD.AperFunction*%
%TA.AperFunction,Conductor*%
G36*
X146204830Y-73157643D02*
G01*
X146147823Y-73124730D01*
X146020656Y-73090655D01*
X145889004Y-73090655D01*
X145761837Y-73124730D01*
X145704830Y-73157643D01*
X145704830Y-71483667D01*
X145761837Y-71516580D01*
X145889004Y-71550655D01*
X146020656Y-71550655D01*
X146147823Y-71516580D01*
X146204830Y-71483667D01*
X146204830Y-73157643D01*
G37*
%TD.AperFunction*%
%TA.AperFunction,Conductor*%
G36*
X150373395Y-51300972D02*
G01*
X150534919Y-51315103D01*
X150556204Y-51318855D01*
X150707587Y-51359419D01*
X150727885Y-51366807D01*
X150847564Y-51422614D01*
X150869915Y-51433037D01*
X150888634Y-51443844D01*
X151017010Y-51533734D01*
X151033567Y-51547628D01*
X151144371Y-51658432D01*
X151158265Y-51674989D01*
X151248155Y-51803365D01*
X151258962Y-51822084D01*
X151325189Y-51964107D01*
X151332582Y-51984418D01*
X151373143Y-52135794D01*
X151376896Y-52157080D01*
X151391028Y-52318603D01*
X151391500Y-52329411D01*
X151391500Y-92450588D01*
X151391028Y-92461395D01*
X151391028Y-92461396D01*
X151376896Y-92622919D01*
X151373143Y-92644205D01*
X151332582Y-92795581D01*
X151325189Y-92815892D01*
X151258962Y-92957915D01*
X151248155Y-92976634D01*
X151158265Y-93105010D01*
X151144371Y-93121567D01*
X151033567Y-93232371D01*
X151017010Y-93246265D01*
X150888634Y-93336155D01*
X150869915Y-93346962D01*
X150727892Y-93413189D01*
X150707581Y-93420582D01*
X150556205Y-93461143D01*
X150534919Y-93464896D01*
X150389332Y-93477633D01*
X150373394Y-93479028D01*
X150362588Y-93479500D01*
X51821412Y-93479500D01*
X51810605Y-93479028D01*
X51792754Y-93477466D01*
X51649080Y-93464896D01*
X51627794Y-93461143D01*
X51476418Y-93420582D01*
X51456107Y-93413189D01*
X51314084Y-93346962D01*
X51295365Y-93336155D01*
X51166989Y-93246265D01*
X51150432Y-93232371D01*
X51039628Y-93121567D01*
X51025734Y-93105010D01*
X50935844Y-92976634D01*
X50925037Y-92957915D01*
X50914614Y-92935564D01*
X50858807Y-92815885D01*
X50851419Y-92795587D01*
X50810855Y-92644204D01*
X50807103Y-92622918D01*
X50792972Y-92461395D01*
X50792500Y-92450588D01*
X50792500Y-70152810D01*
X54947830Y-70152810D01*
X54947830Y-70800655D01*
X55864818Y-70800655D01*
X55831905Y-70857662D01*
X55797830Y-70984829D01*
X55797830Y-71116481D01*
X55831905Y-71243648D01*
X55864818Y-71300655D01*
X54947830Y-71300655D01*
X54947830Y-71948499D01*
X54954231Y-72008027D01*
X54954233Y-72008034D01*
X55004475Y-72142741D01*
X55004477Y-72142743D01*
X55082032Y-72246344D01*
X55106449Y-72311808D01*
X55091598Y-72380081D01*
X55082032Y-72394966D01*
X55004477Y-72498566D01*
X55004475Y-72498568D01*
X54954233Y-72633275D01*
X54954231Y-72633282D01*
X54947830Y-72692810D01*
X54947830Y-73340655D01*
X55864818Y-73340655D01*
X55831905Y-73397662D01*
X55797830Y-73524829D01*
X55797830Y-73656481D01*
X55831905Y-73783648D01*
X55864818Y-73840655D01*
X54947830Y-73840655D01*
X54947830Y-74488499D01*
X54954231Y-74548027D01*
X54954233Y-74548034D01*
X55004475Y-74682741D01*
X55004479Y-74682748D01*
X55090639Y-74797842D01*
X55090642Y-74797845D01*
X55205736Y-74884005D01*
X55205743Y-74884009D01*
X55340450Y-74934251D01*
X55340457Y-74934253D01*
X55399985Y-74940654D01*
X55400002Y-74940655D01*
X56047830Y-74940655D01*
X56047830Y-74023667D01*
X56104837Y-74056580D01*
X56232004Y-74090655D01*
X56363656Y-74090655D01*
X56490823Y-74056580D01*
X56547830Y-74023667D01*
X56547830Y-74940655D01*
X57195658Y-74940655D01*
X57195674Y-74940654D01*
X57255202Y-74934253D01*
X57255209Y-74934251D01*
X57389916Y-74884009D01*
X57389923Y-74884005D01*
X57505017Y-74797845D01*
X57505020Y-74797842D01*
X57591180Y-74682748D01*
X57591184Y-74682741D01*
X57640252Y-74551184D01*
X57682123Y-74495250D01*
X57747587Y-74470833D01*
X57815860Y-74485685D01*
X57844115Y-74506836D01*
X57958043Y-74620764D01*
X58130009Y-74745703D01*
X58130011Y-74745704D01*
X58130014Y-74745706D01*
X58319418Y-74842212D01*
X58521587Y-74907901D01*
X58731543Y-74941155D01*
X58731544Y-74941155D01*
X58944116Y-74941155D01*
X58944117Y-74941155D01*
X59154073Y-74907901D01*
X59356242Y-74842212D01*
X59545646Y-74745706D01*
X59632308Y-74682743D01*
X59717616Y-74620764D01*
X59717618Y-74620761D01*
X59717622Y-74620759D01*
X59867934Y-74470447D01*
X59867936Y-74470443D01*
X59867939Y-74470441D01*
X59992878Y-74298475D01*
X59992877Y-74298475D01*
X59992881Y-74298471D01*
X59997344Y-74289709D01*
X60045318Y-74238914D01*
X60113138Y-74222118D01*
X60179274Y-74244654D01*
X60218316Y-74289711D01*
X60222781Y-74298475D01*
X60347720Y-74470441D01*
X60498043Y-74620764D01*
X60670009Y-74745703D01*
X60670011Y-74745704D01*
X60670014Y-74745706D01*
X60859418Y-74842212D01*
X61061587Y-74907901D01*
X61271543Y-74941155D01*
X61271544Y-74941155D01*
X61484116Y-74941155D01*
X61484117Y-74941155D01*
X61694073Y-74907901D01*
X61896242Y-74842212D01*
X62085646Y-74745706D01*
X62172308Y-74682743D01*
X62257616Y-74620764D01*
X62257618Y-74620761D01*
X62257622Y-74620759D01*
X62407934Y-74470447D01*
X62407936Y-74470443D01*
X62407939Y-74470441D01*
X62532878Y-74298475D01*
X62532877Y-74298475D01*
X62532881Y-74298471D01*
X62537344Y-74289709D01*
X62585318Y-74238914D01*
X62653138Y-74222118D01*
X62719274Y-74244654D01*
X62758316Y-74289711D01*
X62762781Y-74298475D01*
X62887720Y-74470441D01*
X63038043Y-74620764D01*
X63210009Y-74745703D01*
X63210011Y-74745704D01*
X63210014Y-74745706D01*
X63399418Y-74842212D01*
X63601587Y-74907901D01*
X63811543Y-74941155D01*
X63811544Y-74941155D01*
X64024116Y-74941155D01*
X64024117Y-74941155D01*
X64234073Y-74907901D01*
X64436242Y-74842212D01*
X64625646Y-74745706D01*
X64712308Y-74682743D01*
X64797616Y-74620764D01*
X64797618Y-74620761D01*
X64797622Y-74620759D01*
X64947934Y-74470447D01*
X64947936Y-74470443D01*
X64947939Y-74470441D01*
X65072878Y-74298475D01*
X65072877Y-74298475D01*
X65072881Y-74298471D01*
X65077344Y-74289709D01*
X65125318Y-74238914D01*
X65193138Y-74222118D01*
X65259274Y-74244654D01*
X65298316Y-74289711D01*
X65302781Y-74298475D01*
X65427720Y-74470441D01*
X65578043Y-74620764D01*
X65750009Y-74745703D01*
X65750011Y-74745704D01*
X65750014Y-74745706D01*
X65939418Y-74842212D01*
X66141587Y-74907901D01*
X66351543Y-74941155D01*
X66351544Y-74941155D01*
X66564116Y-74941155D01*
X66564117Y-74941155D01*
X66774073Y-74907901D01*
X66976242Y-74842212D01*
X67165646Y-74745706D01*
X67252308Y-74682743D01*
X67337616Y-74620764D01*
X67337618Y-74620761D01*
X67337622Y-74620759D01*
X67487934Y-74470447D01*
X67487936Y-74470443D01*
X67487939Y-74470441D01*
X67612878Y-74298475D01*
X67612877Y-74298475D01*
X67612881Y-74298471D01*
X67617344Y-74289709D01*
X67665318Y-74238914D01*
X67733138Y-74222118D01*
X67799274Y-74244654D01*
X67838316Y-74289711D01*
X67842781Y-74298475D01*
X67967720Y-74470441D01*
X68118043Y-74620764D01*
X68290009Y-74745703D01*
X68290011Y-74745704D01*
X68290014Y-74745706D01*
X68479418Y-74842212D01*
X68681587Y-74907901D01*
X68891543Y-74941155D01*
X68891544Y-74941155D01*
X69104116Y-74941155D01*
X69104117Y-74941155D01*
X69314073Y-74907901D01*
X69516242Y-74842212D01*
X69705646Y-74745706D01*
X69792308Y-74682743D01*
X69877616Y-74620764D01*
X69877618Y-74620761D01*
X69877622Y-74620759D01*
X70027934Y-74470447D01*
X70027936Y-74470443D01*
X70027939Y-74470441D01*
X70152878Y-74298475D01*
X70152877Y-74298475D01*
X70152881Y-74298471D01*
X70157344Y-74289709D01*
X70205318Y-74238914D01*
X70273138Y-74222118D01*
X70339274Y-74244654D01*
X70378316Y-74289711D01*
X70382781Y-74298475D01*
X70507720Y-74470441D01*
X70658043Y-74620764D01*
X70830009Y-74745703D01*
X70830011Y-74745704D01*
X70830014Y-74745706D01*
X71019418Y-74842212D01*
X71221587Y-74907901D01*
X71431543Y-74941155D01*
X71431544Y-74941155D01*
X71644116Y-74941155D01*
X71644117Y-74941155D01*
X71854073Y-74907901D01*
X72056242Y-74842212D01*
X72245646Y-74745706D01*
X72332308Y-74682743D01*
X72417616Y-74620764D01*
X72417618Y-74620761D01*
X72417622Y-74620759D01*
X72567934Y-74470447D01*
X72567936Y-74470443D01*
X72567939Y-74470441D01*
X72692878Y-74298475D01*
X72692877Y-74298475D01*
X72692881Y-74298471D01*
X72697344Y-74289709D01*
X72745318Y-74238914D01*
X72813138Y-74222118D01*
X72879274Y-74244654D01*
X72918316Y-74289711D01*
X72922781Y-74298475D01*
X73047720Y-74470441D01*
X73198043Y-74620764D01*
X73370009Y-74745703D01*
X73370011Y-74745704D01*
X73370014Y-74745706D01*
X73559418Y-74842212D01*
X73761587Y-74907901D01*
X73971543Y-74941155D01*
X73971544Y-74941155D01*
X74184116Y-74941155D01*
X74184117Y-74941155D01*
X74394073Y-74907901D01*
X74596242Y-74842212D01*
X74785646Y-74745706D01*
X74872308Y-74682743D01*
X74957616Y-74620764D01*
X74957618Y-74620761D01*
X74957622Y-74620759D01*
X75107934Y-74470447D01*
X75107936Y-74470443D01*
X75107939Y-74470441D01*
X75232878Y-74298475D01*
X75232877Y-74298475D01*
X75232881Y-74298471D01*
X75237344Y-74289709D01*
X75285318Y-74238914D01*
X75353138Y-74222118D01*
X75419274Y-74244654D01*
X75458316Y-74289711D01*
X75462781Y-74298475D01*
X75587720Y-74470441D01*
X75738043Y-74620764D01*
X75910009Y-74745703D01*
X75910011Y-74745704D01*
X75910014Y-74745706D01*
X76099418Y-74842212D01*
X76301587Y-74907901D01*
X76511543Y-74941155D01*
X76511544Y-74941155D01*
X76724116Y-74941155D01*
X76724117Y-74941155D01*
X76934073Y-74907901D01*
X77136242Y-74842212D01*
X77325646Y-74745706D01*
X77412308Y-74682743D01*
X77497616Y-74620764D01*
X77497618Y-74620761D01*
X77497622Y-74620759D01*
X77647934Y-74470447D01*
X77647936Y-74470443D01*
X77647939Y-74470441D01*
X77772878Y-74298475D01*
X77772877Y-74298475D01*
X77772881Y-74298471D01*
X77777344Y-74289709D01*
X77825318Y-74238914D01*
X77893138Y-74222118D01*
X77959274Y-74244654D01*
X77998316Y-74289711D01*
X78002781Y-74298475D01*
X78127720Y-74470441D01*
X78278043Y-74620764D01*
X78450009Y-74745703D01*
X78450011Y-74745704D01*
X78450014Y-74745706D01*
X78639418Y-74842212D01*
X78841587Y-74907901D01*
X79051543Y-74941155D01*
X79051544Y-74941155D01*
X79264116Y-74941155D01*
X79264117Y-74941155D01*
X79474073Y-74907901D01*
X79676242Y-74842212D01*
X79865646Y-74745706D01*
X79952308Y-74682743D01*
X80037616Y-74620764D01*
X80037618Y-74620761D01*
X80037622Y-74620759D01*
X80187934Y-74470447D01*
X80187936Y-74470443D01*
X80187939Y-74470441D01*
X80312878Y-74298475D01*
X80312877Y-74298475D01*
X80312881Y-74298471D01*
X80317344Y-74289709D01*
X80365318Y-74238914D01*
X80433138Y-74222118D01*
X80499274Y-74244654D01*
X80538316Y-74289711D01*
X80542781Y-74298475D01*
X80667720Y-74470441D01*
X80818043Y-74620764D01*
X80990009Y-74745703D01*
X80990011Y-74745704D01*
X80990014Y-74745706D01*
X81179418Y-74842212D01*
X81381587Y-74907901D01*
X81591543Y-74941155D01*
X81591544Y-74941155D01*
X81804116Y-74941155D01*
X81804117Y-74941155D01*
X82014073Y-74907901D01*
X82216242Y-74842212D01*
X82405646Y-74745706D01*
X82492308Y-74682743D01*
X82577616Y-74620764D01*
X82577618Y-74620761D01*
X82577622Y-74620759D01*
X82727934Y-74470447D01*
X82727936Y-74470443D01*
X82727939Y-74470441D01*
X82852878Y-74298475D01*
X82852877Y-74298475D01*
X82852881Y-74298471D01*
X82857344Y-74289709D01*
X82905318Y-74238914D01*
X82973138Y-74222118D01*
X83039274Y-74244654D01*
X83078316Y-74289711D01*
X83082781Y-74298475D01*
X83207720Y-74470441D01*
X83358043Y-74620764D01*
X83530009Y-74745703D01*
X83530011Y-74745704D01*
X83530014Y-74745706D01*
X83719418Y-74842212D01*
X83921587Y-74907901D01*
X84131543Y-74941155D01*
X84131544Y-74941155D01*
X84344116Y-74941155D01*
X84344117Y-74941155D01*
X84554073Y-74907901D01*
X84756242Y-74842212D01*
X84945646Y-74745706D01*
X85032308Y-74682743D01*
X85117616Y-74620764D01*
X85117618Y-74620761D01*
X85117622Y-74620759D01*
X85267934Y-74470447D01*
X85267936Y-74470443D01*
X85267939Y-74470441D01*
X85392878Y-74298475D01*
X85392877Y-74298475D01*
X85392881Y-74298471D01*
X85397344Y-74289709D01*
X85445318Y-74238914D01*
X85513138Y-74222118D01*
X85579274Y-74244654D01*
X85618316Y-74289711D01*
X85622781Y-74298475D01*
X85747720Y-74470441D01*
X85898043Y-74620764D01*
X86070009Y-74745703D01*
X86070011Y-74745704D01*
X86070014Y-74745706D01*
X86259418Y-74842212D01*
X86461587Y-74907901D01*
X86671543Y-74941155D01*
X86671544Y-74941155D01*
X86884116Y-74941155D01*
X86884117Y-74941155D01*
X87094073Y-74907901D01*
X87296242Y-74842212D01*
X87485646Y-74745706D01*
X87572308Y-74682743D01*
X87657616Y-74620764D01*
X87657618Y-74620761D01*
X87657622Y-74620759D01*
X87807934Y-74470447D01*
X87807936Y-74470443D01*
X87807939Y-74470441D01*
X87932878Y-74298475D01*
X87932877Y-74298475D01*
X87932881Y-74298471D01*
X87937344Y-74289709D01*
X87985318Y-74238914D01*
X88053138Y-74222118D01*
X88119274Y-74244654D01*
X88158316Y-74289711D01*
X88162781Y-74298475D01*
X88287720Y-74470441D01*
X88438043Y-74620764D01*
X88610009Y-74745703D01*
X88610011Y-74745704D01*
X88610014Y-74745706D01*
X88799418Y-74842212D01*
X89001587Y-74907901D01*
X89211543Y-74941155D01*
X89211544Y-74941155D01*
X89424116Y-74941155D01*
X89424117Y-74941155D01*
X89634073Y-74907901D01*
X89836242Y-74842212D01*
X90025646Y-74745706D01*
X90112308Y-74682743D01*
X90197616Y-74620764D01*
X90197618Y-74620761D01*
X90197622Y-74620759D01*
X90347934Y-74470447D01*
X90347936Y-74470443D01*
X90347939Y-74470441D01*
X90472878Y-74298475D01*
X90472877Y-74298475D01*
X90472881Y-74298471D01*
X90477344Y-74289709D01*
X90525318Y-74238914D01*
X90593138Y-74222118D01*
X90659274Y-74244654D01*
X90698316Y-74289711D01*
X90702781Y-74298475D01*
X90827720Y-74470441D01*
X90978043Y-74620764D01*
X91150009Y-74745703D01*
X91150011Y-74745704D01*
X91150014Y-74745706D01*
X91339418Y-74842212D01*
X91541587Y-74907901D01*
X91751543Y-74941155D01*
X91751544Y-74941155D01*
X91964116Y-74941155D01*
X91964117Y-74941155D01*
X92174073Y-74907901D01*
X92376242Y-74842212D01*
X92565646Y-74745706D01*
X92652308Y-74682743D01*
X92737616Y-74620764D01*
X92737618Y-74620761D01*
X92737622Y-74620759D01*
X92887934Y-74470447D01*
X92887936Y-74470443D01*
X92887939Y-74470441D01*
X93012878Y-74298475D01*
X93012877Y-74298475D01*
X93012881Y-74298471D01*
X93017344Y-74289709D01*
X93065318Y-74238914D01*
X93133138Y-74222118D01*
X93199274Y-74244654D01*
X93238316Y-74289711D01*
X93242781Y-74298475D01*
X93367720Y-74470441D01*
X93518043Y-74620764D01*
X93690009Y-74745703D01*
X93690011Y-74745704D01*
X93690014Y-74745706D01*
X93879418Y-74842212D01*
X94081587Y-74907901D01*
X94291543Y-74941155D01*
X94291544Y-74941155D01*
X94504116Y-74941155D01*
X94504117Y-74941155D01*
X94714073Y-74907901D01*
X94916242Y-74842212D01*
X95105646Y-74745706D01*
X95192308Y-74682743D01*
X95277616Y-74620764D01*
X95277618Y-74620761D01*
X95277622Y-74620759D01*
X95427934Y-74470447D01*
X95427936Y-74470443D01*
X95427939Y-74470441D01*
X95552878Y-74298475D01*
X95552877Y-74298475D01*
X95552881Y-74298471D01*
X95557344Y-74289709D01*
X95605318Y-74238914D01*
X95673138Y-74222118D01*
X95739274Y-74244654D01*
X95778316Y-74289711D01*
X95782781Y-74298475D01*
X95907720Y-74470441D01*
X96058043Y-74620764D01*
X96230009Y-74745703D01*
X96230011Y-74745704D01*
X96230014Y-74745706D01*
X96419418Y-74842212D01*
X96621587Y-74907901D01*
X96831543Y-74941155D01*
X96831544Y-74941155D01*
X97044116Y-74941155D01*
X97044117Y-74941155D01*
X97254073Y-74907901D01*
X97456242Y-74842212D01*
X97645646Y-74745706D01*
X97732308Y-74682743D01*
X97817616Y-74620764D01*
X97817618Y-74620761D01*
X97817622Y-74620759D01*
X97967934Y-74470447D01*
X97967936Y-74470443D01*
X97967939Y-74470441D01*
X98092878Y-74298475D01*
X98092877Y-74298475D01*
X98092881Y-74298471D01*
X98189387Y-74109067D01*
X98255076Y-73906898D01*
X98288330Y-73696942D01*
X98288330Y-73484368D01*
X98255076Y-73274412D01*
X98189387Y-73072243D01*
X98092881Y-72882839D01*
X98092879Y-72882836D01*
X98092878Y-72882834D01*
X97967939Y-72710868D01*
X97817616Y-72560545D01*
X97645650Y-72435606D01*
X97644945Y-72435246D01*
X97636884Y-72431140D01*
X97586089Y-72383167D01*
X97569293Y-72315347D01*
X97591829Y-72249211D01*
X97636884Y-72210170D01*
X97645646Y-72205706D01*
X97667619Y-72189741D01*
X97817616Y-72080764D01*
X97817618Y-72080761D01*
X97817622Y-72080759D01*
X97967934Y-71930447D01*
X97967936Y-71930443D01*
X97967939Y-71930441D01*
X98092878Y-71758475D01*
X98092877Y-71758475D01*
X98092881Y-71758471D01*
X98189387Y-71569067D01*
X98255076Y-71366898D01*
X98288330Y-71156942D01*
X98288330Y-70944368D01*
X103964330Y-70944368D01*
X103964330Y-71156941D01*
X103997583Y-71366894D01*
X104063274Y-71569069D01*
X104159781Y-71758475D01*
X104284720Y-71930441D01*
X104435043Y-72080764D01*
X104607012Y-72205705D01*
X104615776Y-72210171D01*
X104666572Y-72258146D01*
X104683366Y-72325967D01*
X104660828Y-72392102D01*
X104615776Y-72431139D01*
X104607012Y-72435604D01*
X104435043Y-72560545D01*
X104284720Y-72710868D01*
X104159781Y-72882834D01*
X104063274Y-73072240D01*
X103997583Y-73274415D01*
X103964330Y-73484368D01*
X103964330Y-73696941D01*
X103997583Y-73906894D01*
X104063274Y-74109069D01*
X104159781Y-74298475D01*
X104284720Y-74470441D01*
X104435043Y-74620764D01*
X104607009Y-74745703D01*
X104607011Y-74745704D01*
X104607014Y-74745706D01*
X104796418Y-74842212D01*
X104998587Y-74907901D01*
X105208543Y-74941155D01*
X105208544Y-74941155D01*
X105421116Y-74941155D01*
X105421117Y-74941155D01*
X105631073Y-74907901D01*
X105833242Y-74842212D01*
X106022646Y-74745706D01*
X106109308Y-74682743D01*
X106194616Y-74620764D01*
X106194618Y-74620761D01*
X106194622Y-74620759D01*
X106344934Y-74470447D01*
X106344936Y-74470443D01*
X106344939Y-74470441D01*
X106469878Y-74298475D01*
X106469877Y-74298475D01*
X106469881Y-74298471D01*
X106474344Y-74289709D01*
X106522318Y-74238914D01*
X106590138Y-74222118D01*
X106656274Y-74244654D01*
X106695316Y-74289711D01*
X106699781Y-74298475D01*
X106824720Y-74470441D01*
X106975043Y-74620764D01*
X107147009Y-74745703D01*
X107147011Y-74745704D01*
X107147014Y-74745706D01*
X107336418Y-74842212D01*
X107538587Y-74907901D01*
X107748543Y-74941155D01*
X107748544Y-74941155D01*
X107961116Y-74941155D01*
X107961117Y-74941155D01*
X108171073Y-74907901D01*
X108373242Y-74842212D01*
X108562646Y-74745706D01*
X108649308Y-74682743D01*
X108734616Y-74620764D01*
X108734618Y-74620761D01*
X108734622Y-74620759D01*
X108884934Y-74470447D01*
X108884936Y-74470443D01*
X108884939Y-74470441D01*
X109009878Y-74298475D01*
X109009877Y-74298475D01*
X109009881Y-74298471D01*
X109014344Y-74289709D01*
X109062318Y-74238914D01*
X109130138Y-74222118D01*
X109196274Y-74244654D01*
X109235316Y-74289711D01*
X109239781Y-74298475D01*
X109364720Y-74470441D01*
X109515043Y-74620764D01*
X109687009Y-74745703D01*
X109687011Y-74745704D01*
X109687014Y-74745706D01*
X109876418Y-74842212D01*
X110078587Y-74907901D01*
X110288543Y-74941155D01*
X110288544Y-74941155D01*
X110501116Y-74941155D01*
X110501117Y-74941155D01*
X110711073Y-74907901D01*
X110913242Y-74842212D01*
X111102646Y-74745706D01*
X111189308Y-74682743D01*
X111274616Y-74620764D01*
X111274618Y-74620761D01*
X111274622Y-74620759D01*
X111424934Y-74470447D01*
X111424936Y-74470443D01*
X111424939Y-74470441D01*
X111549878Y-74298475D01*
X111549877Y-74298475D01*
X111549881Y-74298471D01*
X111554344Y-74289709D01*
X111602318Y-74238914D01*
X111670138Y-74222118D01*
X111736274Y-74244654D01*
X111775316Y-74289711D01*
X111779781Y-74298475D01*
X111904720Y-74470441D01*
X112055043Y-74620764D01*
X112227009Y-74745703D01*
X112227011Y-74745704D01*
X112227014Y-74745706D01*
X112416418Y-74842212D01*
X112618587Y-74907901D01*
X112828543Y-74941155D01*
X112828544Y-74941155D01*
X113041116Y-74941155D01*
X113041117Y-74941155D01*
X113251073Y-74907901D01*
X113453242Y-74842212D01*
X113642646Y-74745706D01*
X113729308Y-74682743D01*
X113814616Y-74620764D01*
X113814618Y-74620761D01*
X113814622Y-74620759D01*
X113964934Y-74470447D01*
X113964936Y-74470443D01*
X113964939Y-74470441D01*
X114089878Y-74298475D01*
X114089877Y-74298475D01*
X114089881Y-74298471D01*
X114094344Y-74289709D01*
X114142318Y-74238914D01*
X114210138Y-74222118D01*
X114276274Y-74244654D01*
X114315316Y-74289711D01*
X114319781Y-74298475D01*
X114444720Y-74470441D01*
X114595043Y-74620764D01*
X114767009Y-74745703D01*
X114767011Y-74745704D01*
X114767014Y-74745706D01*
X114956418Y-74842212D01*
X115158587Y-74907901D01*
X115368543Y-74941155D01*
X115368544Y-74941155D01*
X115581116Y-74941155D01*
X115581117Y-74941155D01*
X115791073Y-74907901D01*
X115993242Y-74842212D01*
X116182646Y-74745706D01*
X116269308Y-74682743D01*
X116354616Y-74620764D01*
X116354618Y-74620761D01*
X116354622Y-74620759D01*
X116504934Y-74470447D01*
X116504936Y-74470443D01*
X116504939Y-74470441D01*
X116629878Y-74298475D01*
X116629877Y-74298475D01*
X116629881Y-74298471D01*
X116634344Y-74289709D01*
X116682318Y-74238914D01*
X116750138Y-74222118D01*
X116816274Y-74244654D01*
X116855316Y-74289711D01*
X116859781Y-74298475D01*
X116984720Y-74470441D01*
X117135043Y-74620764D01*
X117307009Y-74745703D01*
X117307011Y-74745704D01*
X117307014Y-74745706D01*
X117496418Y-74842212D01*
X117698587Y-74907901D01*
X117908543Y-74941155D01*
X117908544Y-74941155D01*
X118121116Y-74941155D01*
X118121117Y-74941155D01*
X118331073Y-74907901D01*
X118533242Y-74842212D01*
X118722646Y-74745706D01*
X118809308Y-74682743D01*
X118894616Y-74620764D01*
X118894618Y-74620761D01*
X118894622Y-74620759D01*
X119044934Y-74470447D01*
X119044936Y-74470443D01*
X119044939Y-74470441D01*
X119169878Y-74298475D01*
X119169877Y-74298475D01*
X119169881Y-74298471D01*
X119174344Y-74289709D01*
X119222318Y-74238914D01*
X119290138Y-74222118D01*
X119356274Y-74244654D01*
X119395316Y-74289711D01*
X119399781Y-74298475D01*
X119524720Y-74470441D01*
X119675043Y-74620764D01*
X119847009Y-74745703D01*
X119847011Y-74745704D01*
X119847014Y-74745706D01*
X120036418Y-74842212D01*
X120238587Y-74907901D01*
X120448543Y-74941155D01*
X120448544Y-74941155D01*
X120661116Y-74941155D01*
X120661117Y-74941155D01*
X120871073Y-74907901D01*
X121073242Y-74842212D01*
X121262646Y-74745706D01*
X121349308Y-74682743D01*
X121434616Y-74620764D01*
X121434618Y-74620761D01*
X121434622Y-74620759D01*
X121584934Y-74470447D01*
X121584936Y-74470443D01*
X121584939Y-74470441D01*
X121709878Y-74298475D01*
X121709877Y-74298475D01*
X121709881Y-74298471D01*
X121714344Y-74289709D01*
X121762318Y-74238914D01*
X121830138Y-74222118D01*
X121896274Y-74244654D01*
X121935316Y-74289711D01*
X121939781Y-74298475D01*
X122064720Y-74470441D01*
X122215043Y-74620764D01*
X122387009Y-74745703D01*
X122387011Y-74745704D01*
X122387014Y-74745706D01*
X122576418Y-74842212D01*
X122778587Y-74907901D01*
X122988543Y-74941155D01*
X122988544Y-74941155D01*
X123201116Y-74941155D01*
X123201117Y-74941155D01*
X123411073Y-74907901D01*
X123613242Y-74842212D01*
X123802646Y-74745706D01*
X123889308Y-74682743D01*
X123974616Y-74620764D01*
X123974618Y-74620761D01*
X123974622Y-74620759D01*
X124124934Y-74470447D01*
X124124936Y-74470443D01*
X124124939Y-74470441D01*
X124249878Y-74298475D01*
X124249877Y-74298475D01*
X124249881Y-74298471D01*
X124254344Y-74289709D01*
X124302318Y-74238914D01*
X124370138Y-74222118D01*
X124436274Y-74244654D01*
X124475316Y-74289711D01*
X124479781Y-74298475D01*
X124604720Y-74470441D01*
X124755043Y-74620764D01*
X124927009Y-74745703D01*
X124927011Y-74745704D01*
X124927014Y-74745706D01*
X125116418Y-74842212D01*
X125318587Y-74907901D01*
X125528543Y-74941155D01*
X125528544Y-74941155D01*
X125741116Y-74941155D01*
X125741117Y-74941155D01*
X125951073Y-74907901D01*
X126153242Y-74842212D01*
X126342646Y-74745706D01*
X126429308Y-74682743D01*
X126514616Y-74620764D01*
X126514618Y-74620761D01*
X126514622Y-74620759D01*
X126664934Y-74470447D01*
X126664936Y-74470443D01*
X126664939Y-74470441D01*
X126789878Y-74298475D01*
X126789877Y-74298475D01*
X126789881Y-74298471D01*
X126794344Y-74289709D01*
X126842318Y-74238914D01*
X126910138Y-74222118D01*
X126976274Y-74244654D01*
X127015316Y-74289711D01*
X127019781Y-74298475D01*
X127144720Y-74470441D01*
X127295043Y-74620764D01*
X127467009Y-74745703D01*
X127467011Y-74745704D01*
X127467014Y-74745706D01*
X127656418Y-74842212D01*
X127858587Y-74907901D01*
X128068543Y-74941155D01*
X128068544Y-74941155D01*
X128281116Y-74941155D01*
X128281117Y-74941155D01*
X128491073Y-74907901D01*
X128693242Y-74842212D01*
X128882646Y-74745706D01*
X128969308Y-74682743D01*
X129054616Y-74620764D01*
X129054618Y-74620761D01*
X129054622Y-74620759D01*
X129204934Y-74470447D01*
X129204936Y-74470443D01*
X129204939Y-74470441D01*
X129329878Y-74298475D01*
X129329877Y-74298475D01*
X129329881Y-74298471D01*
X129334344Y-74289709D01*
X129382318Y-74238914D01*
X129450138Y-74222118D01*
X129516274Y-74244654D01*
X129555316Y-74289711D01*
X129559781Y-74298475D01*
X129684720Y-74470441D01*
X129835043Y-74620764D01*
X130007009Y-74745703D01*
X130007011Y-74745704D01*
X130007014Y-74745706D01*
X130196418Y-74842212D01*
X130398587Y-74907901D01*
X130608543Y-74941155D01*
X130608544Y-74941155D01*
X130821116Y-74941155D01*
X130821117Y-74941155D01*
X131031073Y-74907901D01*
X131233242Y-74842212D01*
X131422646Y-74745706D01*
X131509308Y-74682743D01*
X131594616Y-74620764D01*
X131594618Y-74620761D01*
X131594622Y-74620759D01*
X131744934Y-74470447D01*
X131744936Y-74470443D01*
X131744939Y-74470441D01*
X131869878Y-74298475D01*
X131869877Y-74298475D01*
X131869881Y-74298471D01*
X131874344Y-74289709D01*
X131922318Y-74238914D01*
X131990138Y-74222118D01*
X132056274Y-74244654D01*
X132095316Y-74289711D01*
X132099781Y-74298475D01*
X132224720Y-74470441D01*
X132375043Y-74620764D01*
X132547009Y-74745703D01*
X132547011Y-74745704D01*
X132547014Y-74745706D01*
X132736418Y-74842212D01*
X132938587Y-74907901D01*
X133148543Y-74941155D01*
X133148544Y-74941155D01*
X133361116Y-74941155D01*
X133361117Y-74941155D01*
X133571073Y-74907901D01*
X133773242Y-74842212D01*
X133962646Y-74745706D01*
X134049308Y-74682743D01*
X134134616Y-74620764D01*
X134134618Y-74620761D01*
X134134622Y-74620759D01*
X134284934Y-74470447D01*
X134284936Y-74470443D01*
X134284939Y-74470441D01*
X134409878Y-74298475D01*
X134409877Y-74298475D01*
X134409881Y-74298471D01*
X134414344Y-74289709D01*
X134462318Y-74238914D01*
X134530138Y-74222118D01*
X134596274Y-74244654D01*
X134635316Y-74289711D01*
X134639781Y-74298475D01*
X134764720Y-74470441D01*
X134915043Y-74620764D01*
X135087009Y-74745703D01*
X135087011Y-74745704D01*
X135087014Y-74745706D01*
X135276418Y-74842212D01*
X135478587Y-74907901D01*
X135688543Y-74941155D01*
X135688544Y-74941155D01*
X135901116Y-74941155D01*
X135901117Y-74941155D01*
X136111073Y-74907901D01*
X136313242Y-74842212D01*
X136502646Y-74745706D01*
X136589308Y-74682743D01*
X136674616Y-74620764D01*
X136674618Y-74620761D01*
X136674622Y-74620759D01*
X136824934Y-74470447D01*
X136824936Y-74470443D01*
X136824939Y-74470441D01*
X136949878Y-74298475D01*
X136949877Y-74298475D01*
X136949881Y-74298471D01*
X136954344Y-74289709D01*
X137002318Y-74238914D01*
X137070138Y-74222118D01*
X137136274Y-74244654D01*
X137175316Y-74289711D01*
X137179781Y-74298475D01*
X137304720Y-74470441D01*
X137455043Y-74620764D01*
X137627009Y-74745703D01*
X137627011Y-74745704D01*
X137627014Y-74745706D01*
X137816418Y-74842212D01*
X138018587Y-74907901D01*
X138228543Y-74941155D01*
X138228544Y-74941155D01*
X138441116Y-74941155D01*
X138441117Y-74941155D01*
X138651073Y-74907901D01*
X138853242Y-74842212D01*
X139042646Y-74745706D01*
X139129308Y-74682743D01*
X139214616Y-74620764D01*
X139214618Y-74620761D01*
X139214622Y-74620759D01*
X139364934Y-74470447D01*
X139364936Y-74470443D01*
X139364939Y-74470441D01*
X139489878Y-74298475D01*
X139489877Y-74298475D01*
X139489881Y-74298471D01*
X139494344Y-74289709D01*
X139542318Y-74238914D01*
X139610138Y-74222118D01*
X139676274Y-74244654D01*
X139715316Y-74289711D01*
X139719781Y-74298475D01*
X139844720Y-74470441D01*
X139995043Y-74620764D01*
X140167009Y-74745703D01*
X140167011Y-74745704D01*
X140167014Y-74745706D01*
X140356418Y-74842212D01*
X140558587Y-74907901D01*
X140768543Y-74941155D01*
X140768544Y-74941155D01*
X140981116Y-74941155D01*
X140981117Y-74941155D01*
X141191073Y-74907901D01*
X141393242Y-74842212D01*
X141582646Y-74745706D01*
X141669308Y-74682743D01*
X141754616Y-74620764D01*
X141754618Y-74620761D01*
X141754622Y-74620759D01*
X141904934Y-74470447D01*
X141904936Y-74470443D01*
X141904939Y-74470441D01*
X142029878Y-74298475D01*
X142029877Y-74298475D01*
X142029881Y-74298471D01*
X142034344Y-74289709D01*
X142082318Y-74238914D01*
X142150138Y-74222118D01*
X142216274Y-74244654D01*
X142255316Y-74289711D01*
X142259781Y-74298475D01*
X142384720Y-74470441D01*
X142535043Y-74620764D01*
X142707009Y-74745703D01*
X142707011Y-74745704D01*
X142707014Y-74745706D01*
X142896418Y-74842212D01*
X143098587Y-74907901D01*
X143308543Y-74941155D01*
X143308544Y-74941155D01*
X143521116Y-74941155D01*
X143521117Y-74941155D01*
X143731073Y-74907901D01*
X143933242Y-74842212D01*
X144122646Y-74745706D01*
X144209308Y-74682743D01*
X144294614Y-74620765D01*
X144294614Y-74620764D01*
X144294622Y-74620759D01*
X144408547Y-74506833D01*
X144469866Y-74473351D01*
X144539558Y-74478335D01*
X144595492Y-74520206D01*
X144612407Y-74551183D01*
X144661476Y-74682743D01*
X144661479Y-74682748D01*
X144747639Y-74797842D01*
X144747642Y-74797845D01*
X144862736Y-74884005D01*
X144862743Y-74884009D01*
X144997450Y-74934251D01*
X144997457Y-74934253D01*
X145056985Y-74940654D01*
X145057002Y-74940655D01*
X145704830Y-74940655D01*
X145704830Y-74023667D01*
X145761837Y-74056580D01*
X145889004Y-74090655D01*
X146020656Y-74090655D01*
X146147823Y-74056580D01*
X146204830Y-74023667D01*
X146204830Y-74940655D01*
X146852658Y-74940655D01*
X146852674Y-74940654D01*
X146912202Y-74934253D01*
X146912209Y-74934251D01*
X147046916Y-74884009D01*
X147046923Y-74884005D01*
X147162017Y-74797845D01*
X147162020Y-74797842D01*
X147248180Y-74682748D01*
X147248184Y-74682741D01*
X147298426Y-74548034D01*
X147298428Y-74548027D01*
X147304829Y-74488499D01*
X147304830Y-74488482D01*
X147304830Y-73840655D01*
X146387842Y-73840655D01*
X146420755Y-73783648D01*
X146454830Y-73656481D01*
X146454830Y-73524829D01*
X146420755Y-73397662D01*
X146387842Y-73340655D01*
X147304830Y-73340655D01*
X147304830Y-72692827D01*
X147304829Y-72692810D01*
X147298428Y-72633282D01*
X147298426Y-72633275D01*
X147248184Y-72498568D01*
X147248182Y-72498565D01*
X147170628Y-72394967D01*
X147146210Y-72329503D01*
X147161061Y-72261229D01*
X147170628Y-72246343D01*
X147248182Y-72142744D01*
X147248184Y-72142741D01*
X147298426Y-72008034D01*
X147298428Y-72008027D01*
X147304829Y-71948499D01*
X147304830Y-71948482D01*
X147304830Y-71300655D01*
X146387842Y-71300655D01*
X146420755Y-71243648D01*
X146454830Y-71116481D01*
X146454830Y-70984829D01*
X146420755Y-70857662D01*
X146387842Y-70800655D01*
X147304830Y-70800655D01*
X147304830Y-70152827D01*
X147304829Y-70152810D01*
X147298428Y-70093282D01*
X147298426Y-70093275D01*
X147248184Y-69958568D01*
X147248180Y-69958561D01*
X147162020Y-69843467D01*
X147162017Y-69843464D01*
X147046923Y-69757304D01*
X147046916Y-69757300D01*
X146912209Y-69707058D01*
X146912202Y-69707056D01*
X146852674Y-69700655D01*
X146204830Y-69700655D01*
X146204830Y-70617643D01*
X146147823Y-70584730D01*
X146020656Y-70550655D01*
X145889004Y-70550655D01*
X145761837Y-70584730D01*
X145704830Y-70617643D01*
X145704830Y-69700655D01*
X145056985Y-69700655D01*
X144997457Y-69707056D01*
X144997450Y-69707058D01*
X144862743Y-69757300D01*
X144862736Y-69757304D01*
X144747642Y-69843464D01*
X144747639Y-69843467D01*
X144661479Y-69958561D01*
X144661476Y-69958567D01*
X144612407Y-70090126D01*
X144570535Y-70146059D01*
X144505071Y-70170476D01*
X144436798Y-70155624D01*
X144408544Y-70134473D01*
X144294616Y-70020545D01*
X144122650Y-69895606D01*
X143933244Y-69799099D01*
X143933243Y-69799098D01*
X143933242Y-69799098D01*
X143731073Y-69733409D01*
X143731071Y-69733408D01*
X143731070Y-69733408D01*
X143569787Y-69707863D01*
X143521117Y-69700155D01*
X143308543Y-69700155D01*
X143259872Y-69707863D01*
X143098590Y-69733408D01*
X142896415Y-69799099D01*
X142707009Y-69895606D01*
X142535043Y-70020545D01*
X142384720Y-70170868D01*
X142259779Y-70342837D01*
X142255314Y-70351601D01*
X142207339Y-70402397D01*
X142139518Y-70419191D01*
X142073383Y-70396653D01*
X142034346Y-70351601D01*
X142029880Y-70342837D01*
X141904939Y-70170868D01*
X141754616Y-70020545D01*
X141582650Y-69895606D01*
X141393244Y-69799099D01*
X141393243Y-69799098D01*
X141393242Y-69799098D01*
X141191073Y-69733409D01*
X141191071Y-69733408D01*
X141191070Y-69733408D01*
X141029787Y-69707863D01*
X140981117Y-69700155D01*
X140768543Y-69700155D01*
X140719872Y-69707863D01*
X140558590Y-69733408D01*
X140356415Y-69799099D01*
X140167009Y-69895606D01*
X139995043Y-70020545D01*
X139844720Y-70170868D01*
X139719779Y-70342837D01*
X139715314Y-70351601D01*
X139667339Y-70402397D01*
X139599518Y-70419191D01*
X139533383Y-70396653D01*
X139494346Y-70351601D01*
X139489880Y-70342837D01*
X139364939Y-70170868D01*
X139214616Y-70020545D01*
X139042650Y-69895606D01*
X138853244Y-69799099D01*
X138853243Y-69799098D01*
X138853242Y-69799098D01*
X138651073Y-69733409D01*
X138651071Y-69733408D01*
X138651070Y-69733408D01*
X138489787Y-69707863D01*
X138441117Y-69700155D01*
X138228543Y-69700155D01*
X138179872Y-69707863D01*
X138018590Y-69733408D01*
X137816415Y-69799099D01*
X137627009Y-69895606D01*
X137455043Y-70020545D01*
X137304720Y-70170868D01*
X137179779Y-70342837D01*
X137175314Y-70351601D01*
X137127339Y-70402397D01*
X137059518Y-70419191D01*
X136993383Y-70396653D01*
X136954346Y-70351601D01*
X136949880Y-70342837D01*
X136824939Y-70170868D01*
X136674616Y-70020545D01*
X136502650Y-69895606D01*
X136313244Y-69799099D01*
X136313243Y-69799098D01*
X136313242Y-69799098D01*
X136111073Y-69733409D01*
X136111071Y-69733408D01*
X136111070Y-69733408D01*
X135949787Y-69707863D01*
X135901117Y-69700155D01*
X135688543Y-69700155D01*
X135639872Y-69707863D01*
X135478590Y-69733408D01*
X135276415Y-69799099D01*
X135087009Y-69895606D01*
X134915043Y-70020545D01*
X134764720Y-70170868D01*
X134639779Y-70342837D01*
X134635314Y-70351601D01*
X134587339Y-70402397D01*
X134519518Y-70419191D01*
X134453383Y-70396653D01*
X134414346Y-70351601D01*
X134409880Y-70342837D01*
X134284939Y-70170868D01*
X134134616Y-70020545D01*
X133962650Y-69895606D01*
X133773244Y-69799099D01*
X133773243Y-69799098D01*
X133773242Y-69799098D01*
X133571073Y-69733409D01*
X133571071Y-69733408D01*
X133571070Y-69733408D01*
X133409787Y-69707863D01*
X133361117Y-69700155D01*
X133148543Y-69700155D01*
X133099872Y-69707863D01*
X132938590Y-69733408D01*
X132736415Y-69799099D01*
X132547009Y-69895606D01*
X132375043Y-70020545D01*
X132224720Y-70170868D01*
X132099779Y-70342837D01*
X132095314Y-70351601D01*
X132047339Y-70402397D01*
X131979518Y-70419191D01*
X131913383Y-70396653D01*
X131874346Y-70351601D01*
X131869880Y-70342837D01*
X131744939Y-70170868D01*
X131594616Y-70020545D01*
X131422650Y-69895606D01*
X131233244Y-69799099D01*
X131233243Y-69799098D01*
X131233242Y-69799098D01*
X131031073Y-69733409D01*
X131031071Y-69733408D01*
X131031070Y-69733408D01*
X130869787Y-69707863D01*
X130821117Y-69700155D01*
X130608543Y-69700155D01*
X130559872Y-69707863D01*
X130398590Y-69733408D01*
X130196415Y-69799099D01*
X130007009Y-69895606D01*
X129835043Y-70020545D01*
X129684720Y-70170868D01*
X129559779Y-70342837D01*
X129555314Y-70351601D01*
X129507339Y-70402397D01*
X129439518Y-70419191D01*
X129373383Y-70396653D01*
X129334346Y-70351601D01*
X129329880Y-70342837D01*
X129204939Y-70170868D01*
X129054616Y-70020545D01*
X128882650Y-69895606D01*
X128693244Y-69799099D01*
X128693243Y-69799098D01*
X128693242Y-69799098D01*
X128491073Y-69733409D01*
X128491071Y-69733408D01*
X128491070Y-69733408D01*
X128329787Y-69707863D01*
X128281117Y-69700155D01*
X128068543Y-69700155D01*
X128019872Y-69707863D01*
X127858590Y-69733408D01*
X127656415Y-69799099D01*
X127467009Y-69895606D01*
X127295043Y-70020545D01*
X127144720Y-70170868D01*
X127019779Y-70342837D01*
X127015314Y-70351601D01*
X126967339Y-70402397D01*
X126899518Y-70419191D01*
X126833383Y-70396653D01*
X126794346Y-70351601D01*
X126789880Y-70342837D01*
X126664939Y-70170868D01*
X126514616Y-70020545D01*
X126342650Y-69895606D01*
X126153244Y-69799099D01*
X126153243Y-69799098D01*
X126153242Y-69799098D01*
X125951073Y-69733409D01*
X125951071Y-69733408D01*
X125951070Y-69733408D01*
X125789787Y-69707863D01*
X125741117Y-69700155D01*
X125528543Y-69700155D01*
X125479872Y-69707863D01*
X125318590Y-69733408D01*
X125116415Y-69799099D01*
X124927009Y-69895606D01*
X124755043Y-70020545D01*
X124604720Y-70170868D01*
X124479779Y-70342837D01*
X124475314Y-70351601D01*
X124427339Y-70402397D01*
X124359518Y-70419191D01*
X124293383Y-70396653D01*
X124254346Y-70351601D01*
X124249880Y-70342837D01*
X124124939Y-70170868D01*
X123974616Y-70020545D01*
X123802650Y-69895606D01*
X123613244Y-69799099D01*
X123613243Y-69799098D01*
X123613242Y-69799098D01*
X123411073Y-69733409D01*
X123411071Y-69733408D01*
X123411070Y-69733408D01*
X123249787Y-69707863D01*
X123201117Y-69700155D01*
X122988543Y-69700155D01*
X122939872Y-69707863D01*
X122778590Y-69733408D01*
X122576415Y-69799099D01*
X122387009Y-69895606D01*
X122215043Y-70020545D01*
X122064720Y-70170868D01*
X121939779Y-70342837D01*
X121935314Y-70351601D01*
X121887339Y-70402397D01*
X121819518Y-70419191D01*
X121753383Y-70396653D01*
X121714346Y-70351601D01*
X121709880Y-70342837D01*
X121584939Y-70170868D01*
X121434616Y-70020545D01*
X121262650Y-69895606D01*
X121073244Y-69799099D01*
X121073243Y-69799098D01*
X121073242Y-69799098D01*
X120871073Y-69733409D01*
X120871071Y-69733408D01*
X120871070Y-69733408D01*
X120709787Y-69707863D01*
X120661117Y-69700155D01*
X120448543Y-69700155D01*
X120399872Y-69707863D01*
X120238590Y-69733408D01*
X120036415Y-69799099D01*
X119847009Y-69895606D01*
X119675043Y-70020545D01*
X119524720Y-70170868D01*
X119399779Y-70342837D01*
X119395314Y-70351601D01*
X119347339Y-70402397D01*
X119279518Y-70419191D01*
X119213383Y-70396653D01*
X119174346Y-70351601D01*
X119169880Y-70342837D01*
X119044939Y-70170868D01*
X118894616Y-70020545D01*
X118722650Y-69895606D01*
X118533244Y-69799099D01*
X118533243Y-69799098D01*
X118533242Y-69799098D01*
X118331073Y-69733409D01*
X118331071Y-69733408D01*
X118331070Y-69733408D01*
X118169787Y-69707863D01*
X118121117Y-69700155D01*
X117908543Y-69700155D01*
X117859872Y-69707863D01*
X117698590Y-69733408D01*
X117496415Y-69799099D01*
X117307009Y-69895606D01*
X117135043Y-70020545D01*
X116984720Y-70170868D01*
X116859779Y-70342837D01*
X116855314Y-70351601D01*
X116807339Y-70402397D01*
X116739518Y-70419191D01*
X116673383Y-70396653D01*
X116634346Y-70351601D01*
X116629880Y-70342837D01*
X116504939Y-70170868D01*
X116354616Y-70020545D01*
X116182650Y-69895606D01*
X115993244Y-69799099D01*
X115993243Y-69799098D01*
X115993242Y-69799098D01*
X115791073Y-69733409D01*
X115791071Y-69733408D01*
X115791070Y-69733408D01*
X115629787Y-69707863D01*
X115581117Y-69700155D01*
X115368543Y-69700155D01*
X115319872Y-69707863D01*
X115158590Y-69733408D01*
X114956415Y-69799099D01*
X114767009Y-69895606D01*
X114595043Y-70020545D01*
X114444720Y-70170868D01*
X114319779Y-70342837D01*
X114315314Y-70351601D01*
X114267339Y-70402397D01*
X114199518Y-70419191D01*
X114133383Y-70396653D01*
X114094346Y-70351601D01*
X114089880Y-70342837D01*
X113964939Y-70170868D01*
X113814616Y-70020545D01*
X113642650Y-69895606D01*
X113453244Y-69799099D01*
X113453243Y-69799098D01*
X113453242Y-69799098D01*
X113251073Y-69733409D01*
X113251071Y-69733408D01*
X113251070Y-69733408D01*
X113089787Y-69707863D01*
X113041117Y-69700155D01*
X112828543Y-69700155D01*
X112779872Y-69707863D01*
X112618590Y-69733408D01*
X112416415Y-69799099D01*
X112227009Y-69895606D01*
X112055043Y-70020545D01*
X111904720Y-70170868D01*
X111779779Y-70342837D01*
X111775314Y-70351601D01*
X111727339Y-70402397D01*
X111659518Y-70419191D01*
X111593383Y-70396653D01*
X111554346Y-70351601D01*
X111549880Y-70342837D01*
X111424939Y-70170868D01*
X111274616Y-70020545D01*
X111102650Y-69895606D01*
X110913244Y-69799099D01*
X110913243Y-69799098D01*
X110913242Y-69799098D01*
X110711073Y-69733409D01*
X110711071Y-69733408D01*
X110711070Y-69733408D01*
X110549787Y-69707863D01*
X110501117Y-69700155D01*
X110288543Y-69700155D01*
X110239872Y-69707863D01*
X110078590Y-69733408D01*
X109876415Y-69799099D01*
X109687009Y-69895606D01*
X109515043Y-70020545D01*
X109364720Y-70170868D01*
X109239779Y-70342837D01*
X109235314Y-70351601D01*
X109187339Y-70402397D01*
X109119518Y-70419191D01*
X109053383Y-70396653D01*
X109014346Y-70351601D01*
X109009880Y-70342837D01*
X108884939Y-70170868D01*
X108734616Y-70020545D01*
X108562650Y-69895606D01*
X108373244Y-69799099D01*
X108373243Y-69799098D01*
X108373242Y-69799098D01*
X108171073Y-69733409D01*
X108171071Y-69733408D01*
X108171070Y-69733408D01*
X108009787Y-69707863D01*
X107961117Y-69700155D01*
X107748543Y-69700155D01*
X107699872Y-69707863D01*
X107538590Y-69733408D01*
X107336415Y-69799099D01*
X107147009Y-69895606D01*
X106975043Y-70020545D01*
X106824720Y-70170868D01*
X106699779Y-70342837D01*
X106695314Y-70351601D01*
X106647339Y-70402397D01*
X106579518Y-70419191D01*
X106513383Y-70396653D01*
X106474346Y-70351601D01*
X106469880Y-70342837D01*
X106344939Y-70170868D01*
X106194616Y-70020545D01*
X106022650Y-69895606D01*
X105833244Y-69799099D01*
X105833243Y-69799098D01*
X105833242Y-69799098D01*
X105631073Y-69733409D01*
X105631071Y-69733408D01*
X105631070Y-69733408D01*
X105469787Y-69707863D01*
X105421117Y-69700155D01*
X105208543Y-69700155D01*
X105159872Y-69707863D01*
X104998590Y-69733408D01*
X104796415Y-69799099D01*
X104607009Y-69895606D01*
X104435043Y-70020545D01*
X104284720Y-70170868D01*
X104159781Y-70342834D01*
X104063274Y-70532240D01*
X103997583Y-70734415D01*
X103964330Y-70944368D01*
X98288330Y-70944368D01*
X98255076Y-70734412D01*
X98189387Y-70532243D01*
X98092881Y-70342839D01*
X98092879Y-70342836D01*
X98092878Y-70342834D01*
X97967939Y-70170868D01*
X97817616Y-70020545D01*
X97645650Y-69895606D01*
X97456244Y-69799099D01*
X97456243Y-69799098D01*
X97456242Y-69799098D01*
X97254073Y-69733409D01*
X97254071Y-69733408D01*
X97254070Y-69733408D01*
X97092787Y-69707863D01*
X97044117Y-69700155D01*
X96831543Y-69700155D01*
X96782872Y-69707863D01*
X96621590Y-69733408D01*
X96419415Y-69799099D01*
X96230009Y-69895606D01*
X96058043Y-70020545D01*
X95907720Y-70170868D01*
X95782779Y-70342837D01*
X95778314Y-70351601D01*
X95730339Y-70402397D01*
X95662518Y-70419191D01*
X95596383Y-70396653D01*
X95557346Y-70351601D01*
X95552880Y-70342837D01*
X95427939Y-70170868D01*
X95277616Y-70020545D01*
X95105650Y-69895606D01*
X94916244Y-69799099D01*
X94916243Y-69799098D01*
X94916242Y-69799098D01*
X94714073Y-69733409D01*
X94714071Y-69733408D01*
X94714070Y-69733408D01*
X94552787Y-69707863D01*
X94504117Y-69700155D01*
X94291543Y-69700155D01*
X94242872Y-69707863D01*
X94081590Y-69733408D01*
X93879415Y-69799099D01*
X93690009Y-69895606D01*
X93518043Y-70020545D01*
X93367720Y-70170868D01*
X93242779Y-70342837D01*
X93238314Y-70351601D01*
X93190339Y-70402397D01*
X93122518Y-70419191D01*
X93056383Y-70396653D01*
X93017346Y-70351601D01*
X93012880Y-70342837D01*
X92887939Y-70170868D01*
X92737616Y-70020545D01*
X92565650Y-69895606D01*
X92376244Y-69799099D01*
X92376243Y-69799098D01*
X92376242Y-69799098D01*
X92174073Y-69733409D01*
X92174071Y-69733408D01*
X92174070Y-69733408D01*
X92012787Y-69707863D01*
X91964117Y-69700155D01*
X91751543Y-69700155D01*
X91702872Y-69707863D01*
X91541590Y-69733408D01*
X91339415Y-69799099D01*
X91150009Y-69895606D01*
X90978043Y-70020545D01*
X90827720Y-70170868D01*
X90702779Y-70342837D01*
X90698314Y-70351601D01*
X90650339Y-70402397D01*
X90582518Y-70419191D01*
X90516383Y-70396653D01*
X90477346Y-70351601D01*
X90472880Y-70342837D01*
X90347939Y-70170868D01*
X90197616Y-70020545D01*
X90025650Y-69895606D01*
X89836244Y-69799099D01*
X89836243Y-69799098D01*
X89836242Y-69799098D01*
X89634073Y-69733409D01*
X89634071Y-69733408D01*
X89634070Y-69733408D01*
X89472787Y-69707863D01*
X89424117Y-69700155D01*
X89211543Y-69700155D01*
X89162872Y-69707863D01*
X89001590Y-69733408D01*
X88799415Y-69799099D01*
X88610009Y-69895606D01*
X88438043Y-70020545D01*
X88287720Y-70170868D01*
X88162779Y-70342837D01*
X88158314Y-70351601D01*
X88110339Y-70402397D01*
X88042518Y-70419191D01*
X87976383Y-70396653D01*
X87937346Y-70351601D01*
X87932880Y-70342837D01*
X87807939Y-70170868D01*
X87657616Y-70020545D01*
X87485650Y-69895606D01*
X87296244Y-69799099D01*
X87296243Y-69799098D01*
X87296242Y-69799098D01*
X87094073Y-69733409D01*
X87094071Y-69733408D01*
X87094070Y-69733408D01*
X86932787Y-69707863D01*
X86884117Y-69700155D01*
X86671543Y-69700155D01*
X86622872Y-69707863D01*
X86461590Y-69733408D01*
X86259415Y-69799099D01*
X86070009Y-69895606D01*
X85898043Y-70020545D01*
X85747720Y-70170868D01*
X85622779Y-70342837D01*
X85618314Y-70351601D01*
X85570339Y-70402397D01*
X85502518Y-70419191D01*
X85436383Y-70396653D01*
X85397346Y-70351601D01*
X85392880Y-70342837D01*
X85267939Y-70170868D01*
X85117616Y-70020545D01*
X84945650Y-69895606D01*
X84756244Y-69799099D01*
X84756243Y-69799098D01*
X84756242Y-69799098D01*
X84554073Y-69733409D01*
X84554071Y-69733408D01*
X84554070Y-69733408D01*
X84392787Y-69707863D01*
X84344117Y-69700155D01*
X84131543Y-69700155D01*
X84082872Y-69707863D01*
X83921590Y-69733408D01*
X83719415Y-69799099D01*
X83530009Y-69895606D01*
X83358043Y-70020545D01*
X83207720Y-70170868D01*
X83082779Y-70342837D01*
X83078314Y-70351601D01*
X83030339Y-70402397D01*
X82962518Y-70419191D01*
X82896383Y-70396653D01*
X82857346Y-70351601D01*
X82852880Y-70342837D01*
X82727939Y-70170868D01*
X82577616Y-70020545D01*
X82405650Y-69895606D01*
X82216244Y-69799099D01*
X82216243Y-69799098D01*
X82216242Y-69799098D01*
X82014073Y-69733409D01*
X82014071Y-69733408D01*
X82014070Y-69733408D01*
X81852787Y-69707863D01*
X81804117Y-69700155D01*
X81591543Y-69700155D01*
X81542872Y-69707863D01*
X81381590Y-69733408D01*
X81179415Y-69799099D01*
X80990009Y-69895606D01*
X80818043Y-70020545D01*
X80667720Y-70170868D01*
X80542779Y-70342837D01*
X80538314Y-70351601D01*
X80490339Y-70402397D01*
X80422518Y-70419191D01*
X80356383Y-70396653D01*
X80317346Y-70351601D01*
X80312880Y-70342837D01*
X80187939Y-70170868D01*
X80037616Y-70020545D01*
X79865650Y-69895606D01*
X79676244Y-69799099D01*
X79676243Y-69799098D01*
X79676242Y-69799098D01*
X79474073Y-69733409D01*
X79474071Y-69733408D01*
X79474070Y-69733408D01*
X79312787Y-69707863D01*
X79264117Y-69700155D01*
X79051543Y-69700155D01*
X79002872Y-69707863D01*
X78841590Y-69733408D01*
X78639415Y-69799099D01*
X78450009Y-69895606D01*
X78278043Y-70020545D01*
X78127720Y-70170868D01*
X78002779Y-70342837D01*
X77998314Y-70351601D01*
X77950339Y-70402397D01*
X77882518Y-70419191D01*
X77816383Y-70396653D01*
X77777346Y-70351601D01*
X77772880Y-70342837D01*
X77647939Y-70170868D01*
X77497616Y-70020545D01*
X77325650Y-69895606D01*
X77136244Y-69799099D01*
X77136243Y-69799098D01*
X77136242Y-69799098D01*
X76934073Y-69733409D01*
X76934071Y-69733408D01*
X76934070Y-69733408D01*
X76772787Y-69707863D01*
X76724117Y-69700155D01*
X76511543Y-69700155D01*
X76462872Y-69707863D01*
X76301590Y-69733408D01*
X76099415Y-69799099D01*
X75910009Y-69895606D01*
X75738043Y-70020545D01*
X75587720Y-70170868D01*
X75462779Y-70342837D01*
X75458314Y-70351601D01*
X75410339Y-70402397D01*
X75342518Y-70419191D01*
X75276383Y-70396653D01*
X75237346Y-70351601D01*
X75232880Y-70342837D01*
X75107939Y-70170868D01*
X74957616Y-70020545D01*
X74785650Y-69895606D01*
X74596244Y-69799099D01*
X74596243Y-69799098D01*
X74596242Y-69799098D01*
X74394073Y-69733409D01*
X74394071Y-69733408D01*
X74394070Y-69733408D01*
X74232787Y-69707863D01*
X74184117Y-69700155D01*
X73971543Y-69700155D01*
X73922872Y-69707863D01*
X73761590Y-69733408D01*
X73559415Y-69799099D01*
X73370009Y-69895606D01*
X73198043Y-70020545D01*
X73047720Y-70170868D01*
X72922779Y-70342837D01*
X72918314Y-70351601D01*
X72870339Y-70402397D01*
X72802518Y-70419191D01*
X72736383Y-70396653D01*
X72697346Y-70351601D01*
X72692880Y-70342837D01*
X72567939Y-70170868D01*
X72417616Y-70020545D01*
X72245650Y-69895606D01*
X72056244Y-69799099D01*
X72056243Y-69799098D01*
X72056242Y-69799098D01*
X71854073Y-69733409D01*
X71854071Y-69733408D01*
X71854070Y-69733408D01*
X71692787Y-69707863D01*
X71644117Y-69700155D01*
X71431543Y-69700155D01*
X71382872Y-69707863D01*
X71221590Y-69733408D01*
X71019415Y-69799099D01*
X70830009Y-69895606D01*
X70658043Y-70020545D01*
X70507720Y-70170868D01*
X70382779Y-70342837D01*
X70378314Y-70351601D01*
X70330339Y-70402397D01*
X70262518Y-70419191D01*
X70196383Y-70396653D01*
X70157346Y-70351601D01*
X70152880Y-70342837D01*
X70027939Y-70170868D01*
X69877616Y-70020545D01*
X69705650Y-69895606D01*
X69516244Y-69799099D01*
X69516243Y-69799098D01*
X69516242Y-69799098D01*
X69314073Y-69733409D01*
X69314071Y-69733408D01*
X69314070Y-69733408D01*
X69152787Y-69707863D01*
X69104117Y-69700155D01*
X68891543Y-69700155D01*
X68842872Y-69707863D01*
X68681590Y-69733408D01*
X68479415Y-69799099D01*
X68290009Y-69895606D01*
X68118043Y-70020545D01*
X67967720Y-70170868D01*
X67842779Y-70342837D01*
X67838314Y-70351601D01*
X67790339Y-70402397D01*
X67722518Y-70419191D01*
X67656383Y-70396653D01*
X67617346Y-70351601D01*
X67612880Y-70342837D01*
X67487939Y-70170868D01*
X67337616Y-70020545D01*
X67165650Y-69895606D01*
X66976244Y-69799099D01*
X66976243Y-69799098D01*
X66976242Y-69799098D01*
X66774073Y-69733409D01*
X66774071Y-69733408D01*
X66774070Y-69733408D01*
X66612787Y-69707863D01*
X66564117Y-69700155D01*
X66351543Y-69700155D01*
X66302872Y-69707863D01*
X66141590Y-69733408D01*
X65939415Y-69799099D01*
X65750009Y-69895606D01*
X65578043Y-70020545D01*
X65427720Y-70170868D01*
X65302779Y-70342837D01*
X65298314Y-70351601D01*
X65250339Y-70402397D01*
X65182518Y-70419191D01*
X65116383Y-70396653D01*
X65077346Y-70351601D01*
X65072880Y-70342837D01*
X64947939Y-70170868D01*
X64797616Y-70020545D01*
X64625650Y-69895606D01*
X64436244Y-69799099D01*
X64436243Y-69799098D01*
X64436242Y-69799098D01*
X64234073Y-69733409D01*
X64234071Y-69733408D01*
X64234070Y-69733408D01*
X64072787Y-69707863D01*
X64024117Y-69700155D01*
X63811543Y-69700155D01*
X63762872Y-69707863D01*
X63601590Y-69733408D01*
X63399415Y-69799099D01*
X63210009Y-69895606D01*
X63038043Y-70020545D01*
X62887720Y-70170868D01*
X62762779Y-70342837D01*
X62758314Y-70351601D01*
X62710339Y-70402397D01*
X62642518Y-70419191D01*
X62576383Y-70396653D01*
X62537346Y-70351601D01*
X62532880Y-70342837D01*
X62407939Y-70170868D01*
X62257616Y-70020545D01*
X62085650Y-69895606D01*
X61896244Y-69799099D01*
X61896243Y-69799098D01*
X61896242Y-69799098D01*
X61694073Y-69733409D01*
X61694071Y-69733408D01*
X61694070Y-69733408D01*
X61532787Y-69707863D01*
X61484117Y-69700155D01*
X61271543Y-69700155D01*
X61222872Y-69707863D01*
X61061590Y-69733408D01*
X60859415Y-69799099D01*
X60670009Y-69895606D01*
X60498043Y-70020545D01*
X60347720Y-70170868D01*
X60222779Y-70342837D01*
X60218314Y-70351601D01*
X60170339Y-70402397D01*
X60102518Y-70419191D01*
X60036383Y-70396653D01*
X59997346Y-70351601D01*
X59992880Y-70342837D01*
X59867939Y-70170868D01*
X59717616Y-70020545D01*
X59545650Y-69895606D01*
X59356244Y-69799099D01*
X59356243Y-69799098D01*
X59356242Y-69799098D01*
X59154073Y-69733409D01*
X59154071Y-69733408D01*
X59154070Y-69733408D01*
X58992787Y-69707863D01*
X58944117Y-69700155D01*
X58731543Y-69700155D01*
X58682872Y-69707863D01*
X58521590Y-69733408D01*
X58319415Y-69799099D01*
X58130009Y-69895606D01*
X57958045Y-70020544D01*
X57844115Y-70134474D01*
X57782792Y-70167958D01*
X57713100Y-70162974D01*
X57657167Y-70121102D01*
X57640252Y-70090125D01*
X57591184Y-69958568D01*
X57591180Y-69958561D01*
X57505020Y-69843467D01*
X57505017Y-69843464D01*
X57389923Y-69757304D01*
X57389916Y-69757300D01*
X57255209Y-69707058D01*
X57255202Y-69707056D01*
X57195674Y-69700655D01*
X56547830Y-69700655D01*
X56547830Y-70617643D01*
X56490823Y-70584730D01*
X56363656Y-70550655D01*
X56232004Y-70550655D01*
X56104837Y-70584730D01*
X56047830Y-70617643D01*
X56047830Y-69700655D01*
X55399985Y-69700655D01*
X55340457Y-69707056D01*
X55340450Y-69707058D01*
X55205743Y-69757300D01*
X55205736Y-69757304D01*
X55090642Y-69843464D01*
X55090639Y-69843467D01*
X55004479Y-69958561D01*
X55004475Y-69958568D01*
X54954233Y-70093275D01*
X54954231Y-70093282D01*
X54947830Y-70152810D01*
X50792500Y-70152810D01*
X50792500Y-52329411D01*
X50792972Y-52318604D01*
X50807103Y-52157081D01*
X50807103Y-52157080D01*
X50810856Y-52135794D01*
X50851420Y-51984408D01*
X50858806Y-51964117D01*
X50925038Y-51822080D01*
X50935844Y-51803365D01*
X51025738Y-51674983D01*
X51039622Y-51658438D01*
X51150438Y-51547622D01*
X51166983Y-51533738D01*
X51295368Y-51443842D01*
X51314080Y-51433038D01*
X51456117Y-51366806D01*
X51476408Y-51359420D01*
X51627797Y-51318855D01*
X51649078Y-51315103D01*
X51810605Y-51300972D01*
X51821412Y-51300500D01*
X51881892Y-51300500D01*
X150302108Y-51300500D01*
X150362588Y-51300500D01*
X150373395Y-51300972D01*
G37*
%TD.AperFunction*%
%TD*%
M02*
