%TF.GenerationSoftware,KiCad,Pcbnew,9.0.0*%
%TF.CreationDate,2025-03-14T15:21:30-04:00*%
%TF.ProjectId,LVDelay,4c564465-6c61-4792-9e6b-696361645f70,rev?*%
%TF.SameCoordinates,Original*%
%TF.FileFunction,Soldermask,Bot*%
%TF.FilePolarity,Negative*%
%FSLAX46Y46*%
G04 Gerber Fmt 4.6, Leading zero omitted, Abs format (unit mm)*
G04 Created by KiCad (PCBNEW 9.0.0) date 2025-03-14 15:21:30*
%MOMM*%
%LPD*%
G01*
G04 APERTURE LIST*
%ADD10C,1.700000*%
%ADD11O,1.700000X1.700000*%
%ADD12R,1.700000X1.700000*%
G04 APERTURE END LIST*
D10*
%TO.C,J2*%
X105314830Y-73590655D03*
D11*
X105314830Y-71050655D03*
X107854830Y-73590655D03*
X107854830Y-71050655D03*
X110394830Y-73590655D03*
X110394830Y-71050655D03*
X112934830Y-73590655D03*
X112934830Y-71050655D03*
X115474830Y-73590655D03*
X115474830Y-71050655D03*
X118014830Y-73590655D03*
X118014830Y-71050655D03*
X120554830Y-73590655D03*
X120554830Y-71050655D03*
X123094830Y-73590655D03*
X123094830Y-71050655D03*
X125634830Y-73590655D03*
X125634830Y-71050655D03*
X128174830Y-73590655D03*
X128174830Y-71050655D03*
X130714830Y-73590655D03*
X130714830Y-71050655D03*
X133254830Y-73590655D03*
X133254830Y-71050655D03*
X135794830Y-73590655D03*
X135794830Y-71050655D03*
X138334830Y-73590655D03*
X138334830Y-71050655D03*
X140874830Y-73590655D03*
X140874830Y-71050655D03*
X143414830Y-73590655D03*
X143414830Y-71050655D03*
D12*
X145954830Y-73590655D03*
X145954830Y-71050655D03*
%TD*%
D10*
%TO.C,J1*%
X96937830Y-71050655D03*
D11*
X96937830Y-73590655D03*
X94397830Y-71050655D03*
X94397830Y-73590655D03*
X91857830Y-71050655D03*
X91857830Y-73590655D03*
X89317830Y-71050655D03*
X89317830Y-73590655D03*
X86777830Y-71050655D03*
X86777830Y-73590655D03*
X84237830Y-71050655D03*
X84237830Y-73590655D03*
X81697830Y-71050655D03*
X81697830Y-73590655D03*
X79157830Y-71050655D03*
X79157830Y-73590655D03*
X76617830Y-71050655D03*
X76617830Y-73590655D03*
X74077830Y-71050655D03*
X74077830Y-73590655D03*
X71537830Y-71050655D03*
X71537830Y-73590655D03*
X68997830Y-71050655D03*
X68997830Y-73590655D03*
X66457830Y-71050655D03*
X66457830Y-73590655D03*
X63917830Y-71050655D03*
X63917830Y-73590655D03*
X61377830Y-71050655D03*
X61377830Y-73590655D03*
X58837830Y-71050655D03*
X58837830Y-73590655D03*
D12*
X56297830Y-71050655D03*
X56297830Y-73590655D03*
%TD*%
M02*
